:FULLY-SPECIFIED
:FORCE-ALL-JOINTS-BE-3DOF
:DEGREES
714
root -11.6995 13.9151 -38.3035 511.871 -61.6963 213.438
lfemur -65.8185 24.9737 -1.25102
ltibia 75.9779 0 0
lfoot -8.60313 -7.96178 0
ltoes -2.86811 0 0
rfemur 9.22065 -10.5576 11.6038
rtibia 40.1934 0 0
rfoot -25.21 -26.6744 0
rtoes -28.9092 0 0
lowerback 12.2464 1.43749 8.83553
upperback -1.72424 3.48317 5.82128
thorax -8.61946 1.28766 0.632602
lowerneck -3.98401 4.91058 0.852268
upperneck 3.38627 6.46159 0.931353
head 1.71984 3.25351 0.32053
lclavicle -3.19328e-15 -6.63566e-15 0
lhumerus 62.7275 14.1603 106.678
lradius 11.7072 0 0
lwrist -76.47 0 0
lhand -33.8645 42.0201 0
lfingers 7.12502 0 0
lthumb -7.04871 71.8827 0
rclavicle -3.19328e-15 -6.63566e-15 0
rhumerus -75.3292 19.2503 -95.417
rradius 114.614 0 0
rwrist -66.6643 0 0
rhand -8.41809 -40.5399 0
rfingers 7.12502 0 0
rthumb 17.5061 -69.7661 0
715
root -11.718 13.9096 -38.3053 511.849 -61.7512 213.576
lfemur -66.0161 24.9842 -1.30683
ltibia 76.1435 0 0
lfoot -8.71061 -7.96159 0
ltoes -2.88111 0 0
rfemur 9.3032 -10.5604 11.633
rtibia 40.0015 0 0
rfoot -25.1857 -26.6837 0
rtoes -29.248 0 0
lowerback 12.2268 1.43666 8.87247
upperback -1.73131 3.4857 5.83519
thorax -8.61478 1.28691 0.627392
lowerneck -3.92437 4.90705 0.903776
upperneck 3.33837 6.45654 0.886993
head 1.69679 3.25039 0.29516
lclavicle -2.02512e-15 -1.09332e-14 0
lhumerus 62.8865 14.1686 106.961
lradius 11.6491 0 0
lwrist -76.7008 0 0
lhand -33.9026 41.9464 0
lfingers 7.12502 0 0
lthumb -7.08551 71.8078 0
rclavicle -2.02512e-15 -1.09332e-14 0
rhumerus -75.335 19.2364 -95.4169
rradius 114.536 0 0
rwrist -66.4644 0 0
rhand -8.09128 -40.2427 0
rfingers 7.12502 0 0
rthumb 17.821 -69.4462 0
716
root -11.7239 13.9067 -38.3094 511.864 -61.7675 213.584
lfemur -66.0654 25.0134 -1.32963
ltibia 76.2035 0 0
lfoot -8.74785 -7.96372 0
ltoes -2.94403 0 0
rfemur 9.33027 -10.5632 11.6356
rtibia 39.9737 0 0
rfoot -25.162 -26.7351 0
rtoes -29.3375 0 0
lowerback 12.2002 1.43378 8.87743
upperback -1.73178 3.47888 5.83156
thorax -8.59972 1.28393 0.622584
lowerneck -3.91549 4.90628 0.917047
upperneck 3.34986 6.4551 0.879317
head 1.69967 3.24969 0.290548
lclavicle -2.91078e-15 -1.06114e-14 0
lhumerus 62.8618 14.1756 106.825
lradius 11.6729 0 0
lwrist -76.6938 0 0
lhand -33.8472 41.6113 0
lfingers 7.12502 0 0
lthumb -7.03199 71.4744 0
rclavicle -2.91078e-15 -1.06114e-14 0
rhumerus -75.3396 19.2237 -95.4446
rradius 114.461 0 0
rwrist -66.2418 0 0
rhand -7.77499 -39.9172 0
rfingers 7.12502 0 0
rthumb 18.1248 -69.0869 0
717
root -11.7299 13.9038 -38.3136 511.879 -61.7838 213.592
lfemur -66.1147 25.0425 -1.35243
ltibia 76.2636 0 0
lfoot -8.78509 -7.96584 0
ltoes -3.00696 0 0
rfemur 9.35735 -10.566 11.6381
rtibia 39.9459 0 0
rfoot -25.1384 -26.7864 0
rtoes -29.427 0 0
lowerback 12.1736 1.4309 8.88239
upperback -1.73224 3.47205 5.82793
thorax -8.58466 1.28094 0.617777
lowerneck -3.90661 4.90552 0.930317
upperneck 3.36135 6.45366 0.871641
head 1.70254 3.24898 0.285937
lclavicle -3.79643e-15 -1.02895e-14 0
lhumerus 62.837 14.1825 106.689
lradius 11.6966 0 0
lwrist -76.6868 0 0
lhand -33.7917 41.2762 0
lfingers 7.12502 0 0
lthumb -6.97846 71.1409 0
rclavicle -3.79643e-15 -1.02895e-14 0
rhumerus -75.3442 19.211 -95.4723
rradius 114.386 0 0
rwrist -66.0192 0 0
rhand -7.45871 -39.5918 0
rfingers 7.12502 0 0
rthumb 18.4287 -68.7276 0
718
root -11.7358 13.9009 -38.3177 511.893 -61.8002 213.6
lfemur -66.164 25.0717 -1.37524
ltibia 76.3236 0 0
lfoot -8.82234 -7.96797 0
ltoes -3.06988 0 0
rfemur 9.38442 -10.5688 11.6407
rtibia 39.9181 0 0
rfoot -25.1147 -26.8378 0
rtoes -29.5165 0 0
lowerback 12.1469 1.42802 8.88735
upperback -1.73271 3.46523 5.82429
thorax -8.5696 1.27796 0.612969
lowerneck -3.89773 4.90475 0.943588
upperneck 3.37284 6.45222 0.863965
head 1.70542 3.24828 0.281325
lclavicle -4.68209e-15 -9.96767e-15 0
lhumerus 62.8123 14.1895 106.553
lradius 11.7204 0 0
lwrist -76.6798 0 0
lhand -33.7363 40.9411 0
lfingers 7.12502 0 0
lthumb -6.92494 70.8075 0
rclavicle -4.68209e-15 -9.96767e-15 0
rhumerus -75.3488 19.1982 -95.5
rradius 114.311 0 0
rwrist -65.7966 0 0
rhand -7.14242 -39.2663 0
rfingers 7.12502 0 0
rthumb 18.7325 -68.3683 0
719
root -11.7417 13.8979 -38.3219 511.908 -61.8165 213.608
lfemur -66.2134 25.1008 -1.39804
ltibia 76.3836 0 0
lfoot -8.85958 -7.97009 0
ltoes -3.13281 0 0
rfemur 9.4115 -10.5715 11.6432
rtibia 39.8903 0 0
rfoot -25.091 -26.8891 0
rtoes -29.606 0 0
lowerback 12.1203 1.42515 8.8923
upperback -1.73318 3.45841 5.82066
thorax -8.55454 1.27497 0.608162
lowerneck -3.88885 4.90399 0.956859
upperneck 3.38432 6.45078 0.85629
head 1.7083 3.24757 0.276713
lclavicle -5.56774e-15 -9.64582e-15 0
lhumerus 62.7875 14.1965 106.417
lradius 11.7441 0 0
lwrist -76.6728 0 0
lhand -33.6808 40.606 0
lfingers 7.12502 0 0
lthumb -6.87142 70.474 0
rclavicle -5.56774e-15 -9.64582e-15 0
rhumerus -75.3534 19.1855 -95.5277
rradius 114.236 0 0
rwrist -65.574 0 0
rhand -6.82614 -38.9409 0
rfingers 7.12502 0 0
rthumb 19.0363 -68.009 0
720
root -11.7476 13.895 -38.326 511.923 -61.8328 213.616
lfemur -66.2627 25.13 -1.42084
ltibia 76.4436 0 0
lfoot -8.89682 -7.97222 0
ltoes -3.19573 0 0
rfemur 9.43857 -10.5743 11.6458
rtibia 39.8625 0 0
rfoot -25.0673 -26.9405 0
rtoes -29.6955 0 0
lowerback 12.0937 1.42227 8.89726
upperback -1.73365 3.45158 5.81703
thorax -8.53948 1.27199 0.603354
lowerneck -3.87997 4.90322 0.970129
upperneck 3.39581 6.44934 0.848614
head 1.71117 3.24687 0.272101
lclavicle -6.4534e-15 -9.32398e-15 0
lhumerus 62.7628 14.2035 106.281
lradius 11.7679 0 0
lwrist -76.6658 0 0
lhand -33.6254 40.2709 0
lfingers 7.12502 0 0
lthumb -6.8179 70.1406 0
rclavicle -6.4534e-15 -9.32398e-15 0
rhumerus -75.358 19.1728 -95.5554
rradius 114.161 0 0
rwrist -65.3514 0 0
rhand -6.50985 -38.6154 0
rfingers 7.12502 0 0
rthumb 19.3402 -67.6497 0
721
root -11.7536 13.8921 -38.3302 511.938 -61.8491 213.625
lfemur -66.312 25.1591 -1.44364
ltibia 76.5037 0 0
lfoot -8.93406 -7.97434 0
ltoes -3.25865 0 0
rfemur 9.46564 -10.5771 11.6483
rtibia 39.8348 0 0
rfoot -25.0437 -26.9919 0
rtoes -29.785 0 0
lowerback 12.0671 1.41939 8.90222
upperback -1.73411 3.44476 5.8134
thorax -8.52443 1.269 0.598546
lowerneck -3.87109 4.90246 0.9834
upperneck 3.4073 6.44789 0.840938
head 1.71405 3.24617 0.26749
lclavicle -7.33906e-15 -9.00214e-15 0
lhumerus 62.738 14.2104 106.146
lradius 11.7916 0 0
lwrist -76.6588 0 0
lhand -33.5699 39.9358 0
lfingers 7.12502 0 0
lthumb -6.76437 69.8071 0
rclavicle -7.33906e-15 -9.00214e-15 0
rhumerus -75.3626 19.1601 -95.5831
rradius 114.086 0 0
rwrist -65.1288 0 0
rhand -6.19356 -38.2899 0
rfingers 7.12502 0 0
rthumb 19.644 -67.2904 0
